<?xml version='1.0' encoding='UTF-8' standalone='no'?>
<svg viewBox="0 0 2970 2100" xmlns:freecad="https://www.freecad.org/wiki/index.php?title=Svg_Namespace" width="297mm" baseProfile="tiny" xmlns:cc="http://creativecommons.org/ns#" xmlns:inkscape="http://www.inkscape.org/namespaces/inkscape" xmlns:rdf="http://www.w3.org/1999/02/22-rdf-syntax-ns#" xmlns:dc="http://purl.org/dc/elements/1.1/" xmlns:xlink="http://www.w3.org/1999/xlink" height="210mm" version="1.2" xmlns:svg="http://www.w3.org/2000/svg" xmlns:sodipodi="http://sodipodi.sourceforge.net/DTD/sodipodi-0.dtd" xmlns="http://www.w3.org/2000/svg">
 <title>FreeCAD SVG Export</title>
 <desc>Drawing page: Page exported from FreeCAD document: _____________________</desc>
 <defs/>
 <g inkscape:groupmode="layer" inkscape:label="TechDraw" id="Page">
  <g id="A4_Landscape_blank.svg" style="stroke: none;" transform="scale(10.000000, 10.000000)">
   <metadata id="metadata8">
    <rdf:RDF>
     <cc:Work rdf:about="">
      <dc:format>image/svg+xml</dc:format>
      <dc:type rdf:resource="http://purl.org/dc/dcmitype/StillImage"/>
     </cc:Work>
    </rdf:RDF>
   </metadata>
  </g>
  <g fill="none" stroke-width="1" id="DrawingContent" stroke-linecap="square" stroke-linejoin="bevel" stroke="black" fill-rule="evenodd">
   <g fill="none" stroke-width="1" font-family="MS UI Gothic" font-size="31.75" stroke-linecap="square" stroke-linejoin="bevel" transform="matrix(1,0,0,1,1200.34,1019.62)" stroke="#000000" font-style="normal" stroke-opacity="1" font-weight="400">
    <rect width="0" x="0" height="0" y="0"/>
   </g>
   <g fill="#f1f3f5" font-family="MS UI Gothic" font-size="31.75" fill-opacity="1" transform="matrix(1,0,0,1,1200.34,1019.62)" stroke="none" font-style="normal" font-weight="400">
    <path d="M625,750 L625,-750 L-625,-750 L-625,750 L625,750" fill-rule="evenodd" vector-effect="non-scaling-stroke"/>
   </g>
   <g fill="#f1f3f5" font-family="MS UI Gothic" font-size="31.75" fill-opacity="1" transform="matrix(1,0,0,1,1200.34,1019.62)" stroke="none" font-style="normal" font-weight="400">
    <path d="M509.5,702.7 L489.5,702.7 C489.5,711.26 482.56,718.2 474,718.2 C465.44,718.2 458.5,711.26 458.5,702.7 C458.5,694.14 465.44,687.2 474,687.2 C482.56,687.2 489.5,694.14 489.5,702.7 L438.5,702.7 L489.5,702.7 L509.5,702.7" fill-rule="evenodd" vector-effect="non-scaling-stroke"/>
   </g>
   <g fill="#f1f3f5" font-family="MS UI Gothic" font-size="31.75" fill-opacity="1" transform="matrix(1,0,0,1,1200.34,1019.62)" stroke="none" font-style="normal" font-weight="400">
    <path d="M489.5,702.7 C489.5,711.26 482.56,718.2 474,718.2 C465.44,718.2 458.5,711.26 458.5,702.7 C458.5,694.14 465.44,687.2 474,687.2 C482.56,687.2 489.5,694.14 489.5,702.7 " fill-rule="evenodd" vector-effect="non-scaling-stroke"/>
   </g>
   <g fill="#f1f3f5" font-family="MS UI Gothic" font-size="31.75" fill-opacity="1" transform="matrix(1,0,0,1,1200.34,1019.62)" stroke="none" font-style="normal" font-weight="400">
    <path d="M509.5,-697.34 L489.5,-697.34 C489.5,-688.78 482.56,-681.84 474,-681.84 C465.44,-681.84 458.5,-688.78 458.5,-697.34 C458.5,-705.9 465.44,-712.84 474,-712.84 C482.56,-712.84 489.5,-705.9 489.5,-697.34 L438.5,-697.34 L489.5,-697.34 L509.5,-697.34" fill-rule="evenodd" vector-effect="non-scaling-stroke"/>
   </g>
   <g fill="#f1f3f5" font-family="MS UI Gothic" font-size="31.75" fill-opacity="1" transform="matrix(1,0,0,1,1200.34,1019.62)" stroke="none" font-style="normal" font-weight="400">
    <path d="M489.5,-697.34 C489.5,-688.78 482.56,-681.84 474,-681.84 C465.44,-681.84 458.5,-688.78 458.5,-697.34 C458.5,-705.9 465.44,-712.84 474,-712.84 C482.56,-712.84 489.5,-705.9 489.5,-697.34 " fill-rule="evenodd" vector-effect="non-scaling-stroke"/>
   </g>
   <g fill="#f1f3f5" font-family="MS UI Gothic" font-size="31.75" fill-opacity="1" transform="matrix(1,0,0,1,1200.34,1019.62)" stroke="none" font-style="normal" font-weight="400">
    <path d="M-438.5,702.7 L-458.5,702.7 C-458.5,711.26 -465.44,718.2 -474,718.2 C-482.56,718.2 -489.5,711.26 -489.5,702.7 C-489.5,694.14 -482.56,687.2 -474,687.2 C-465.44,687.2 -458.5,694.14 -458.5,702.7 L-509.5,702.7 L-458.5,702.7 L-438.5,702.7" fill-rule="evenodd" vector-effect="non-scaling-stroke"/>
   </g>
   <g fill="#f1f3f5" font-family="MS UI Gothic" font-size="31.75" fill-opacity="1" transform="matrix(1,0,0,1,1200.34,1019.62)" stroke="none" font-style="normal" font-weight="400">
    <path d="M-458.5,702.7 C-458.5,711.26 -465.44,718.2 -474,718.2 C-482.56,718.2 -489.5,711.26 -489.5,702.7 C-489.5,694.14 -482.56,687.2 -474,687.2 C-465.44,687.2 -458.5,694.14 -458.5,702.7 " fill-rule="evenodd" vector-effect="non-scaling-stroke"/>
   </g>
   <g fill="#f1f3f5" font-family="MS UI Gothic" font-size="31.75" fill-opacity="1" transform="matrix(1,0,0,1,1200.34,1019.62)" stroke="none" font-style="normal" font-weight="400">
    <path d="M-438.5,-697.34 L-458.5,-697.34 C-458.5,-688.78 -465.44,-681.84 -474,-681.84 C-482.56,-681.84 -489.5,-688.78 -489.5,-697.34 C-489.5,-705.9 -482.56,-712.84 -474,-712.84 C-465.44,-712.84 -458.5,-705.9 -458.5,-697.34 L-509.5,-697.34 L-458.5,-697.34 L-438.5,-697.34" fill-rule="evenodd" vector-effect="non-scaling-stroke"/>
   </g>
   <g fill="#f1f3f5" font-family="MS UI Gothic" font-size="31.75" fill-opacity="1" transform="matrix(1,0,0,1,1200.34,1019.62)" stroke="none" font-style="normal" font-weight="400">
    <path d="M-458.5,-697.34 C-458.5,-688.78 -465.44,-681.84 -474,-681.84 C-482.56,-681.84 -489.5,-688.78 -489.5,-697.34 C-489.5,-705.9 -482.56,-712.84 -474,-712.84 C-465.44,-712.84 -458.5,-705.9 -458.5,-697.34 " fill-rule="evenodd" vector-effect="non-scaling-stroke"/>
   </g>
   <g fill="#f1f3f5" font-family="MS UI Gothic" font-size="31.75" fill-opacity="1" transform="matrix(1,0,0,1,1200.34,1019.62)" stroke="none" font-style="normal" font-weight="400">
    <path d="M474,738.2 L474,667.2 L474,738.2" fill-rule="evenodd" vector-effect="non-scaling-stroke"/>
   </g>
   <g fill="#f1f3f5" font-family="MS UI Gothic" font-size="31.75" fill-opacity="1" transform="matrix(1,0,0,1,1200.34,1019.62)" stroke="none" font-style="normal" font-weight="400">
    <path d="M474,-661.84 L474,-732.84 L474,-661.84" fill-rule="evenodd" vector-effect="non-scaling-stroke"/>
   </g>
   <g fill="#f1f3f5" font-family="MS UI Gothic" font-size="31.75" fill-opacity="1" transform="matrix(1,0,0,1,1200.34,1019.62)" stroke="none" font-style="normal" font-weight="400">
    <path d="M-474,738.2 L-474,667.2 L-474,738.2" fill-rule="evenodd" vector-effect="non-scaling-stroke"/>
   </g>
   <g fill="#f1f3f5" font-family="MS UI Gothic" font-size="31.75" fill-opacity="1" transform="matrix(1,0,0,1,1200.34,1019.62)" stroke="none" font-style="normal" font-weight="400">
    <path d="M-474,-661.84 L-474,-732.84 L-474,-661.84" fill-rule="evenodd" vector-effect="non-scaling-stroke"/>
   </g>
   <g fill="none" stroke-width="7" font-family="MS UI Gothic" font-size="31.75" stroke-linecap="round" stroke-linejoin="bevel" transform="matrix(1,0,0,1,1200.34,1019.62)" stroke="#000000" font-style="normal" stroke-opacity="1" font-weight="400">
    <path d="M-625,-750 L-625,750" fill-rule="evenodd" vector-effect="none"/>
   </g>
   <g fill="none" stroke-width="7" font-family="MS UI Gothic" font-size="31.75" stroke-linecap="round" stroke-linejoin="bevel" transform="matrix(1,0,0,1,1200.34,1019.62)" stroke="#000000" font-style="normal" stroke-opacity="1" font-weight="400">
    <path d="M625,-750 L-625,-750" fill-rule="evenodd" vector-effect="none"/>
   </g>
   <g fill="none" stroke-width="7" font-family="MS UI Gothic" font-size="31.75" stroke-linecap="round" stroke-linejoin="bevel" transform="matrix(1,0,0,1,1200.34,1019.62)" stroke="#000000" font-style="normal" stroke-opacity="1" font-weight="400">
    <path d="M-625,750 L625,750" fill-rule="evenodd" vector-effect="none"/>
   </g>
   <g fill="none" stroke-width="7" font-family="MS UI Gothic" font-size="31.75" stroke-linecap="round" stroke-linejoin="bevel" transform="matrix(1,0,0,1,1200.34,1019.62)" stroke="#000000" font-style="normal" stroke-opacity="1" font-weight="400">
    <path d="M625,750 L625,-750" fill-rule="evenodd" vector-effect="none"/>
   </g>
   <g fill="none" stroke-width="7" font-family="MS UI Gothic" font-size="31.75" stroke-linecap="round" stroke-linejoin="bevel" transform="matrix(1,0,0,1,1200.34,1019.62)" stroke="#000000" font-style="normal" stroke-opacity="1" font-weight="400">
    <path d="M-458.5,702.7 C-458.5,711.26 -465.44,718.2 -474,718.2 C-482.56,718.2 -489.5,711.26 -489.5,702.7 C-489.5,694.14 -482.56,687.2 -474,687.2 C-465.44,687.2 -458.5,694.14 -458.5,702.7 " fill-rule="evenodd" vector-effect="none"/>
   </g>
   <g fill="none" stroke-width="7" font-family="MS UI Gothic" font-size="31.75" stroke-linecap="round" stroke-linejoin="bevel" transform="matrix(1,0,0,1,1200.34,1019.62)" stroke="#000000" font-style="normal" stroke-opacity="1" font-weight="400">
    <path d="M489.5,702.7 C489.5,711.26 482.56,718.2 474,718.2 C465.44,718.2 458.5,711.26 458.5,702.7 C458.5,694.14 465.44,687.2 474,687.2 C482.56,687.2 489.5,694.14 489.5,702.7 " fill-rule="evenodd" vector-effect="none"/>
   </g>
   <g fill="none" stroke-width="7" font-family="MS UI Gothic" font-size="31.75" stroke-linecap="round" stroke-linejoin="bevel" transform="matrix(1,0,0,1,1200.34,1019.62)" stroke="#000000" font-style="normal" stroke-opacity="1" font-weight="400">
    <path d="M-458.5,-697.34 C-458.5,-688.78 -465.44,-681.84 -474,-681.84 C-482.56,-681.84 -489.5,-688.78 -489.5,-697.34 C-489.5,-705.9 -482.56,-712.84 -474,-712.84 C-465.44,-712.84 -458.5,-705.9 -458.5,-697.34 " fill-rule="evenodd" vector-effect="none"/>
   </g>
   <g fill="none" stroke-width="7" font-family="MS UI Gothic" font-size="31.75" stroke-linecap="round" stroke-linejoin="bevel" transform="matrix(1,0,0,1,1200.34,1019.62)" stroke="#000000" font-style="normal" stroke-opacity="1" font-weight="400">
    <path d="M489.5,-697.34 C489.5,-688.78 482.56,-681.84 474,-681.84 C465.44,-681.84 458.5,-688.78 458.5,-697.34 C458.5,-705.9 465.44,-712.84 474,-712.84 C482.56,-712.84 489.5,-705.9 489.5,-697.34 " fill-rule="evenodd" vector-effect="none"/>
   </g>
   <g fill="none" stroke-dashoffset="0" stroke-width="5" font-family="MS UI Gothic" font-size="31.75" stroke-dasharray="60,15" stroke-linecap="round" stroke-linejoin="bevel" transform="matrix(1,0,0,1,1200.34,1019.62)" stroke="#000000" font-style="normal" stroke-opacity="1" font-weight="400">
    <path d="M509.5,-697.34 L438.5,-697.34" fill-rule="evenodd" vector-effect="none"/>
   </g>
   <g fill="none" stroke-dashoffset="0" stroke-width="5" font-family="MS UI Gothic" font-size="31.75" stroke-dasharray="60,15" stroke-linecap="round" stroke-linejoin="bevel" transform="matrix(1,0,0,1,1200.34,1019.62)" stroke="#000000" font-style="normal" stroke-opacity="1" font-weight="400">
    <path d="M474,-661.84 L474,-732.84" fill-rule="evenodd" vector-effect="none"/>
   </g>
   <g fill="none" stroke-dashoffset="0" stroke-width="5" font-family="MS UI Gothic" font-size="31.75" stroke-dasharray="60,15" stroke-linecap="round" stroke-linejoin="bevel" transform="matrix(1,0,0,1,1200.34,1019.62)" stroke="#000000" font-style="normal" stroke-opacity="1" font-weight="400">
    <path d="M-438.5,-697.34 L-509.5,-697.34" fill-rule="evenodd" vector-effect="none"/>
   </g>
   <g fill="none" stroke-dashoffset="0" stroke-width="5" font-family="MS UI Gothic" font-size="31.75" stroke-dasharray="60,15" stroke-linecap="round" stroke-linejoin="bevel" transform="matrix(1,0,0,1,1200.34,1019.62)" stroke="#000000" font-style="normal" stroke-opacity="1" font-weight="400">
    <path d="M-474,-661.84 L-474,-732.84" fill-rule="evenodd" vector-effect="none"/>
   </g>
   <g fill="none" stroke-dashoffset="0" stroke-width="5" font-family="MS UI Gothic" font-size="31.75" stroke-dasharray="60,15" stroke-linecap="round" stroke-linejoin="bevel" transform="matrix(1,0,0,1,1200.34,1019.62)" stroke="#000000" font-style="normal" stroke-opacity="1" font-weight="400">
    <path d="M-438.5,702.7 L-509.5,702.7" fill-rule="evenodd" vector-effect="none"/>
   </g>
   <g fill="none" stroke-dashoffset="0" stroke-width="5" font-family="MS UI Gothic" font-size="31.75" stroke-dasharray="60,15" stroke-linecap="round" stroke-linejoin="bevel" transform="matrix(1,0,0,1,1200.34,1019.62)" stroke="#000000" font-style="normal" stroke-opacity="1" font-weight="400">
    <path d="M-474,738.2 L-474,667.2" fill-rule="evenodd" vector-effect="none"/>
   </g>
   <g fill="none" stroke-dashoffset="0" stroke-width="5" font-family="MS UI Gothic" font-size="31.75" stroke-dasharray="60,15" stroke-linecap="round" stroke-linejoin="bevel" transform="matrix(1,0,0,1,1200.34,1019.62)" stroke="#000000" font-style="normal" stroke-opacity="1" font-weight="400">
    <path d="M509.5,702.7 L438.5,702.7" fill-rule="evenodd" vector-effect="none"/>
   </g>
   <g fill="none" stroke-dashoffset="0" stroke-width="5" font-family="MS UI Gothic" font-size="31.75" stroke-dasharray="60,15" stroke-linecap="round" stroke-linejoin="bevel" transform="matrix(1,0,0,1,1200.34,1019.62)" stroke="#000000" font-style="normal" stroke-opacity="1" font-weight="400">
    <path d="M474,738.2 L474,667.2" fill-rule="evenodd" vector-effect="none"/>
   </g>
   <g fill="none" stroke-width="1" font-family="MS UI Gothic" font-size="31.75" stroke-linecap="square" stroke-linejoin="bevel" transform="matrix(0,-1,1,0,299.259,1072.5)" stroke="#212529" font-style="normal" stroke-opacity="1" font-weight="400">
    <text fill="#212529" font-family="osifont" font-size="67" fill-opacity="1" x="4" stroke="none" font-style="normal" y="92" xml:space="preserve" font-weight="400">150</text>
   </g>
   <g fill="none" stroke-width="3.5" font-family="MS UI Gothic" font-size="31.75" stroke-linecap="round" stroke-linejoin="bevel" transform="matrix(1,0,0,1,1200.34,1019.62)" stroke="#212529" font-style="normal" stroke-opacity="1" font-weight="400">
    <path d="M-775.081,-750 L-775.081,750 M-625,750 L-803.081,750 M-625,-750 L-803.081,-750" fill-rule="evenodd" vector-effect="none"/>
   </g>
   <g fill="#212529" stroke-width="3.5" font-family="MS UI Gothic" font-size="31.75" fill-opacity="1" stroke-linecap="round" stroke-linejoin="bevel" transform="matrix(1,0,0,1,425.259,1769.62)" stroke="#212529" font-style="normal" stroke-opacity="1" font-weight="400">
    <path d="M0,0 L5.83333,-35 L-5.83333,-35 L0,0" fill-rule="evenodd" vector-effect="none"/>
   </g>
   <g fill="#212529" stroke-width="3.5" font-family="MS UI Gothic" font-size="31.75" fill-opacity="1" stroke-linecap="round" stroke-linejoin="bevel" transform="matrix(1,0,0,1,425.259,269.624)" stroke="#212529" font-style="normal" stroke-opacity="1" font-weight="400">
    <path d="M0,0 L-5.83333,35 L5.83333,35 L0,0" fill-rule="evenodd" vector-effect="none"/>
   </g>
   <g fill="none" stroke-width="1" font-family="MS UI Gothic" font-size="31.75" stroke-linecap="square" stroke-linejoin="bevel" transform="matrix(1,0,0,1,1147.59,1808.83)" stroke="#212529" font-style="normal" stroke-opacity="1" font-weight="400">
    <text fill="#212529" font-family="osifont" font-size="67" fill-opacity="1" x="4" stroke="none" font-style="normal" y="92" xml:space="preserve" font-weight="400">125</text>
   </g>
   <g fill="none" stroke-width="3.5" font-family="MS UI Gothic" font-size="31.75" stroke-linecap="round" stroke-linejoin="bevel" transform="matrix(1,0,0,1,1200.34,1019.62)" stroke="#212529" font-style="normal" stroke-opacity="1" font-weight="400">
    <path d="M-625,915.206 L625,915.206 M625,750 L625,943.206 M-625,750 L-625,943.206" fill-rule="evenodd" vector-effect="none"/>
   </g>
   <g fill="#212529" stroke-width="3.5" font-family="MS UI Gothic" font-size="31.75" fill-opacity="1" stroke-linecap="round" stroke-linejoin="bevel" transform="matrix(1,0,0,1,1825.34,1934.83)" stroke="#212529" font-style="normal" stroke-opacity="1" font-weight="400">
    <path d="M0,0 L-35,-5.83333 L-35,5.83333 L0,0" fill-rule="evenodd" vector-effect="none"/>
   </g>
   <g fill="#212529" stroke-width="3.5" font-family="MS UI Gothic" font-size="31.75" fill-opacity="1" stroke-linecap="round" stroke-linejoin="bevel" transform="matrix(1,0,0,1,575.339,1934.83)" stroke="#212529" font-style="normal" stroke-opacity="1" font-weight="400">
    <path d="M0,0 L35,5.83333 L35,-5.83333 L0,0" fill-rule="evenodd" vector-effect="none"/>
   </g>
   <g fill="none" stroke-width="1" font-family="MS UI Gothic" font-size="31.75" stroke-linecap="square" stroke-linejoin="bevel" transform="matrix(0.805805,0.592181,-0.592181,0.805805,603.955,75.9789)" stroke="#212529" font-style="normal" stroke-opacity="1" font-weight="400">
    <text fill="#212529" font-family="osifont" font-size="67" fill-opacity="1" x="4" stroke="none" font-style="normal" y="92" xml:space="preserve" font-weight="400">⌀3.1</text>
   </g>
   <g fill="none" stroke-width="3.5" font-family="MS UI Gothic" font-size="31.75" stroke-linecap="round" stroke-linejoin="bevel" transform="matrix(1,0,0,1,1200.34,1019.62)" stroke="#212529" font-style="normal" stroke-opacity="1" font-weight="400">
    <path d="M-405.104,-646.709 L-673.82,-844.186" fill-rule="evenodd" vector-effect="none"/>
   </g>
   <g fill="#212529" stroke-width="3.5" font-family="MS UI Gothic" font-size="31.75" fill-opacity="1" stroke-linecap="round" stroke-linejoin="bevel" transform="matrix(1,0,0,1,713.849,313.105)" stroke="#212529" font-style="normal" stroke-opacity="1" font-weight="400">
    <path d="M0,0 L-24.7488,-25.4269 L-31.6576,-16.0258 L0,0" fill-rule="evenodd" vector-effect="none"/>
   </g>
   <g fill="#212529" stroke-width="3.5" font-family="MS UI Gothic" font-size="31.75" fill-opacity="1" stroke-linecap="round" stroke-linejoin="bevel" transform="matrix(1,0,0,1,738.829,331.463)" stroke="#212529" font-style="normal" stroke-opacity="1" font-weight="400">
    <path d="M0,0 L24.7488,25.4269 L31.6576,16.0258 L0,0" fill-rule="evenodd" vector-effect="none"/>
   </g>
   <g fill="none" stroke-width="1" font-family="MS UI Gothic" font-size="31.75" stroke-linecap="square" stroke-linejoin="bevel" transform="matrix(1,0,0,1,1694.96,77.5307)" stroke="#212529" font-style="normal" stroke-opacity="1" font-weight="400">
    <text fill="#212529" font-family="osifont" font-size="67" fill-opacity="1" x="4" stroke="none" font-style="normal" y="92" xml:space="preserve" font-weight="400">15.1</text>
   </g>
   <g fill="none" stroke-width="3.5" font-family="MS UI Gothic" font-size="31.75" stroke-linecap="round" stroke-linejoin="bevel" transform="matrix(1,0,0,1,1200.34,1019.62)" stroke="#212529" font-style="normal" stroke-opacity="1" font-weight="400">
    <path d="M474,-816.093 L625,-816.093 M625,-661.84 L625,-844.093 M474,-661.84 L474,-844.093" fill-rule="evenodd" vector-effect="none"/>
   </g>
   <g fill="#212529" stroke-width="3.5" font-family="MS UI Gothic" font-size="31.75" fill-opacity="1" stroke-linecap="round" stroke-linejoin="bevel" transform="matrix(1,0,0,1,1825.34,203.531)" stroke="#212529" font-style="normal" stroke-opacity="1" font-weight="400">
    <path d="M0,0 L-35,-5.83333 L-35,5.83333 L0,0" fill-rule="evenodd" vector-effect="none"/>
   </g>
   <g fill="#212529" stroke-width="3.5" font-family="MS UI Gothic" font-size="31.75" fill-opacity="1" stroke-linecap="round" stroke-linejoin="bevel" transform="matrix(1,0,0,1,1674.34,203.531)" stroke="#212529" font-style="normal" stroke-opacity="1" font-weight="400">
    <path d="M0,0 L35,5.83333 L35,-5.83333 L0,0" fill-rule="evenodd" vector-effect="none"/>
   </g>
   <g fill="none" stroke-width="1" font-family="MS UI Gothic" font-size="31.75" stroke-linecap="square" stroke-linejoin="bevel" transform="matrix(0,-1,1,0,1855.28,506.924)" stroke="#212529" font-style="normal" stroke-opacity="1" font-weight="400">
    <text fill="#212529" font-family="osifont" font-size="67" fill-opacity="1" x="4" stroke="none" font-style="normal" y="92" xml:space="preserve" font-weight="400">5.266</text>
   </g>
   <g fill="none" stroke-width="3.5" font-family="MS UI Gothic" font-size="31.75" stroke-linecap="round" stroke-linejoin="bevel" transform="matrix(1,0,0,1,1200.34,1019.62)" stroke="#212529" font-style="normal" stroke-opacity="1" font-weight="400">
    <path d="M780.943,-509.2 L780.943,-820 M509.5,-750 L808.943,-750 M509.5,-697.34 L808.943,-697.34" fill-rule="evenodd" vector-effect="none"/>
   </g>
   <g fill="#212529" stroke-width="3.5" font-family="MS UI Gothic" font-size="31.75" fill-opacity="1" stroke-linecap="round" stroke-linejoin="bevel" transform="matrix(1,0,0,1,1981.28,269.624)" stroke="#212529" font-style="normal" stroke-opacity="1" font-weight="400">
    <path d="M0,0 L5.83333,-35 L-5.83333,-35 L0,0" fill-rule="evenodd" vector-effect="none"/>
   </g>
   <g fill="#212529" stroke-width="3.5" font-family="MS UI Gothic" font-size="31.75" fill-opacity="1" stroke-linecap="round" stroke-linejoin="bevel" transform="matrix(1,0,0,1,1981.28,322.284)" stroke="#212529" font-style="normal" stroke-opacity="1" font-weight="400">
    <path d="M0,0 L-5.83333,35 L5.83333,35 L0,0" fill-rule="evenodd" vector-effect="none"/>
   </g>
   <g fill="none" stroke-width="1" font-family="MS UI Gothic" font-size="31.75" stroke-linecap="square" stroke-linejoin="bevel" transform="matrix(1.17146e-15,-1,1,1.17146e-15,1955.14,1929.67)" stroke="#212529" font-style="normal" stroke-opacity="1" font-weight="400">
    <text fill="#212529" font-family="osifont" font-size="67" fill-opacity="1" x="4" stroke="none" font-style="normal" y="92" xml:space="preserve" font-weight="400">4.73</text>
   </g>
   <g fill="none" stroke-width="3.5" font-family="MS UI Gothic" font-size="31.75" stroke-linecap="round" stroke-linejoin="bevel" transform="matrix(1,0,0,1,1200.34,1019.62)" stroke="#212529" font-style="normal" stroke-opacity="1" font-weight="400">
    <path d="M880.801,913.543 L880.801,632.7 M509.5,702.7 L908.801,702.7 M509.5,750 L908.801,750" fill-rule="evenodd" vector-effect="none"/>
   </g>
   <g fill="#212529" stroke-width="3.5" font-family="MS UI Gothic" font-size="31.75" fill-opacity="1" stroke-linecap="round" stroke-linejoin="bevel" transform="matrix(1,0,0,1,2081.14,1722.32)" stroke="#212529" font-style="normal" stroke-opacity="1" font-weight="400">
    <path d="M0,0 L5.83333,-35 L-5.83333,-35 L0,0" fill-rule="evenodd" vector-effect="none"/>
   </g>
   <g fill="#212529" stroke-width="3.5" font-family="MS UI Gothic" font-size="31.75" fill-opacity="1" stroke-linecap="round" stroke-linejoin="bevel" transform="matrix(1,0,0,1,2081.14,1769.62)" stroke="#212529" font-style="normal" stroke-opacity="1" font-weight="400">
    <path d="M0,0 L-5.83333,35 L5.83333,35 L0,0" fill-rule="evenodd" vector-effect="none"/>
   </g>
   <g fill="#f1f3f5" font-family="MS UI Gothic" font-size="31.75" fill-opacity="1" transform="matrix(1,0,0,1,2438.46,1019.62)" stroke="none" font-style="normal" font-weight="400">
    <path d="M-13.125,-750 L13.125,-750 L13.125,750 L-13.125,750 L-13.125,-750" fill-rule="evenodd" vector-effect="non-scaling-stroke"/>
   </g>
   <g fill="none" stroke-width="7" font-family="MS UI Gothic" font-size="31.75" stroke-linecap="round" stroke-linejoin="bevel" transform="matrix(1,0,0,1,2438.46,1019.62)" stroke="#000000" font-style="normal" stroke-opacity="1" font-weight="400">
    <path d="M-13.125,-750 L13.125,-750" fill-rule="evenodd" vector-effect="none"/>
   </g>
   <g fill="none" stroke-width="7" font-family="MS UI Gothic" font-size="31.75" stroke-linecap="round" stroke-linejoin="bevel" transform="matrix(1,0,0,1,2438.46,1019.62)" stroke="#000000" font-style="normal" stroke-opacity="1" font-weight="400">
    <path d="M-13.125,750 L13.125,750" fill-rule="evenodd" vector-effect="none"/>
   </g>
   <g fill="none" stroke-width="7" font-family="MS UI Gothic" font-size="31.75" stroke-linecap="round" stroke-linejoin="bevel" transform="matrix(1,0,0,1,2438.46,1019.62)" stroke="#000000" font-style="normal" stroke-opacity="1" font-weight="400">
    <path d="M-13.125,-750 L-13.125,750" fill-rule="evenodd" vector-effect="none"/>
   </g>
   <g fill="none" stroke-width="7" font-family="MS UI Gothic" font-size="31.75" stroke-linecap="round" stroke-linejoin="bevel" transform="matrix(1,0,0,1,2438.46,1019.62)" stroke="#000000" font-style="normal" stroke-opacity="1" font-weight="400">
    <path d="M13.125,-750 L13.125,750" fill-rule="evenodd" vector-effect="none"/>
   </g>
   <g fill="none" stroke-width="1" font-family="MS UI Gothic" font-size="31.75" stroke-linecap="square" stroke-linejoin="bevel" transform="matrix(1,0,0,1,2582.73,1814.44)" stroke="#212529" font-style="normal" stroke-opacity="1" font-weight="400">
    <text fill="#212529" font-family="osifont" font-size="67" fill-opacity="1" x="4" stroke="none" font-style="normal" y="92" xml:space="preserve" font-weight="400">2.63</text>
   </g>
   <g fill="none" stroke-width="3.5" font-family="MS UI Gothic" font-size="31.75" stroke-linecap="round" stroke-linejoin="bevel" transform="matrix(1,0,0,1,2438.46,1019.62)" stroke="#212529" font-style="normal" stroke-opacity="1" font-weight="400">
    <path d="M-83.125,920.815 L275.016,920.815 M13.125,750 L13.125,948.815 M-13.125,750 L-13.125,948.815" fill-rule="evenodd" vector-effect="none"/>
   </g>
   <g fill="#212529" stroke-width="3.5" font-family="MS UI Gothic" font-size="31.75" fill-opacity="1" stroke-linecap="round" stroke-linejoin="bevel" transform="matrix(1,0,0,1,2451.59,1940.44)" stroke="#212529" font-style="normal" stroke-opacity="1" font-weight="400">
    <path d="M0,0 L35,5.83333 L35,-5.83333 L0,0" fill-rule="evenodd" vector-effect="none"/>
   </g>
   <g fill="#212529" stroke-width="3.5" font-family="MS UI Gothic" font-size="31.75" fill-opacity="1" stroke-linecap="round" stroke-linejoin="bevel" transform="matrix(1,0,0,1,2425.34,1940.44)" stroke="#212529" font-style="normal" stroke-opacity="1" font-weight="400">
    <path d="M0,0 L-35,-5.83333 L-35,5.83333 L0,0" fill-rule="evenodd" vector-effect="none"/>
   </g>
  </g>
 </g>
</svg>
